<svg width="414" height="101" viewBox="0 0 414 101" fill="none" xmlns="http://www.w3.org/2000/svg">
<path d="M16.1392 74H1.78125L20.4304 18.7273H38.2159L56.8651 74H42.5071L29.5256 32.6534H29.0938L16.1392 74ZM14.223 52.2472H44.2344V62.3949H14.223V52.2472ZM74.1135 50.358V74H60.916V32.5455H73.4658V40.1562H73.9246C74.8422 37.6193 76.4075 35.6312 78.6206 34.1918C80.8337 32.7344 83.4696 32.0057 86.5283 32.0057C89.443 32.0057 91.971 32.6624 94.1121 33.9758C96.2712 35.2713 97.9445 37.0885 99.132 39.4276C100.337 41.7486 100.931 44.4654 100.913 47.5781V74H87.7158V50.169C87.7338 47.866 87.149 46.0668 85.9615 44.7713C84.792 43.4759 83.1637 42.8281 81.0766 42.8281C79.6911 42.8281 78.4677 43.134 77.4061 43.7457C76.3625 44.3395 75.5529 45.1941 74.9771 46.3097C74.4194 47.4252 74.1315 48.7746 74.1135 50.358ZM120.381 50.358V74H107.184V32.5455H119.734V40.1562H120.193C121.11 37.6193 122.675 35.6312 124.889 34.1918C127.102 32.7344 129.738 32.0057 132.796 32.0057C135.711 32.0057 138.239 32.6624 140.38 33.9758C142.539 35.2713 144.212 37.0885 145.4 39.4276C146.605 41.7486 147.199 44.4654 147.181 47.5781V74H133.984V50.169C134.002 47.866 133.417 46.0668 132.229 44.7713C131.06 43.4759 129.432 42.8281 127.345 42.8281C125.959 42.8281 124.736 43.134 123.674 43.7457C122.631 44.3395 121.821 45.1941 121.245 46.3097C120.687 47.4252 120.399 48.7746 120.381 50.358ZM165.138 74.7017C162.493 74.7017 160.145 74.2609 158.094 73.3793C156.061 72.4796 154.451 71.1302 153.263 69.331C152.094 67.5137 151.509 65.2377 151.509 62.5028C151.509 60.1998 151.914 58.2566 152.723 56.6733C153.533 55.09 154.648 53.8035 156.07 52.8139C157.491 51.8243 159.129 51.0777 160.982 50.5739C162.835 50.0521 164.814 49.7012 166.919 49.5213C169.276 49.3054 171.175 49.0805 172.614 48.8466C174.053 48.5947 175.097 48.2438 175.745 47.794C176.41 47.3262 176.743 46.6695 176.743 45.8239V45.6889C176.743 44.3035 176.266 43.233 175.313 42.4773C174.359 41.7216 173.073 41.3438 171.453 41.3438C169.708 41.3438 168.305 41.7216 167.243 42.4773C166.182 43.233 165.507 44.2765 165.219 45.608L153.047 45.1761C153.407 42.6572 154.334 40.4081 155.827 38.429C157.338 36.4318 159.407 34.8665 162.034 33.733C164.679 32.5814 167.855 32.0057 171.561 32.0057C174.206 32.0057 176.644 32.3205 178.875 32.9503C181.106 33.562 183.05 34.4616 184.705 35.6491C186.36 36.8187 187.638 38.258 188.537 39.9673C189.455 41.6766 189.914 43.6288 189.914 45.8239V74H177.499V68.2244H177.175C176.437 69.6278 175.493 70.8153 174.341 71.7869C173.208 72.7585 171.867 73.4872 170.32 73.973C168.791 74.4588 167.063 74.7017 165.138 74.7017ZM169.213 66.0653C170.635 66.0653 171.912 65.7775 173.046 65.2017C174.197 64.6259 175.115 63.8343 175.799 62.8267C176.482 61.8011 176.824 60.6136 176.824 59.2642V55.3239C176.446 55.5218 175.988 55.7017 175.448 55.8636C174.926 56.0256 174.35 56.1785 173.72 56.3224C173.091 56.4664 172.443 56.5923 171.777 56.7003C171.112 56.8082 170.473 56.9072 169.861 56.9972C168.62 57.1951 167.558 57.5009 166.676 57.9148C165.813 58.3286 165.147 58.8684 164.679 59.5341C164.229 60.1818 164.005 60.9555 164.005 61.8551C164.005 63.2225 164.49 64.2661 165.462 64.9858C166.452 65.7055 167.702 66.0653 169.213 66.0653ZM232.356 36.7827C232.05 35.6491 231.6 34.6506 231.007 33.7869C230.413 32.9053 229.684 32.1586 228.82 31.5469C227.957 30.9351 226.967 30.4763 225.852 30.1705C224.736 29.8466 223.513 29.6847 222.181 29.6847C219.5 29.6847 217.179 30.3324 215.218 31.6278C213.275 32.9233 211.773 34.8125 210.711 37.2955C209.65 39.7604 209.119 42.7562 209.119 46.2827C209.119 49.8272 209.632 52.8499 210.657 55.3509C211.683 57.8518 213.167 59.759 215.11 61.0724C217.053 62.3859 219.41 63.0426 222.181 63.0426C224.628 63.0426 226.697 62.6468 228.389 61.8551C230.098 61.0455 231.393 59.9029 232.275 58.4276C233.157 56.9522 233.597 55.2159 233.597 53.2188L236.08 53.5156H222.64V43.7727H246.471V51.0866C246.471 56.0346 245.418 60.2718 243.313 63.7983C241.226 67.3248 238.347 70.0327 234.677 71.9219C231.025 73.8111 226.823 74.7557 222.073 74.7557C216.802 74.7557 212.168 73.6132 208.174 71.3281C204.18 69.0431 201.067 65.7865 198.836 61.5582C196.605 57.312 195.489 52.2741 195.489 46.4446C195.489 41.9105 196.164 37.8892 197.514 34.3807C198.863 30.8542 200.743 27.8674 203.154 25.4205C205.583 22.9735 208.39 21.1203 211.575 19.8608C214.777 18.6013 218.223 17.9716 221.911 17.9716C225.114 17.9716 228.092 18.4304 230.845 19.348C233.615 20.2656 236.062 21.5611 238.186 23.2344C240.327 24.9077 242.063 26.8958 243.394 29.1989C244.726 31.5019 245.553 34.0298 245.877 36.7827H232.356ZM252.445 74V32.5455H265.265V40.1023H265.696C266.452 37.3674 267.685 35.3343 269.394 34.0028C271.103 32.6534 273.091 31.9787 275.358 31.9787C275.97 31.9787 276.6 32.0237 277.248 32.1136C277.895 32.1856 278.498 32.3026 279.056 32.4645V43.9347C278.426 43.7187 277.598 43.5478 276.573 43.4219C275.565 43.2959 274.666 43.233 273.874 43.233C272.309 43.233 270.896 43.5838 269.637 44.2855C268.395 44.9692 267.415 45.9318 266.695 47.1733C265.993 48.3968 265.642 49.8362 265.642 51.4915V74H252.445ZM299.732 74.7827C295.378 74.7827 291.635 73.892 288.504 72.1108C285.392 70.3116 282.99 67.8106 281.299 64.608C279.625 61.3873 278.789 57.6539 278.789 53.4077C278.789 49.1435 279.625 45.41 281.299 42.2074C282.99 38.9867 285.392 36.4858 288.504 34.7045C291.635 32.9053 295.378 32.0057 299.732 32.0057C304.086 32.0057 307.819 32.9053 310.932 34.7045C314.063 36.4858 316.465 38.9867 318.138 42.2074C319.829 45.41 320.675 49.1435 320.675 53.4077C320.675 57.6539 319.829 61.3873 318.138 64.608C316.465 67.8106 314.063 70.3116 310.932 72.1108C307.819 73.892 304.086 74.7827 299.732 74.7827ZM299.813 64.8239C301.396 64.8239 302.736 64.3381 303.834 63.3665C304.932 62.3949 305.768 61.0455 306.344 59.3182C306.938 57.5909 307.235 55.5937 307.235 53.3267C307.235 51.0237 306.938 49.0085 306.344 47.2812C305.768 45.554 304.932 44.2045 303.834 43.233C302.736 42.2614 301.396 41.7756 299.813 41.7756C298.175 41.7756 296.79 42.2614 295.656 43.233C294.541 44.2045 293.686 45.554 293.093 47.2812C292.517 49.0085 292.229 51.0237 292.229 53.3267C292.229 55.5937 292.517 57.5909 293.093 59.3182C293.686 61.0455 294.541 62.3949 295.656 63.3665C296.79 64.3381 298.175 64.8239 299.813 64.8239ZM352.281 56.1065V32.5455H365.452V74H352.875V66.2812H352.443C351.526 68.8182 349.96 70.8333 347.747 72.3267C345.552 73.8021 342.898 74.5398 339.786 74.5398C336.961 74.5398 334.478 73.892 332.337 72.5966C330.196 71.3011 328.531 69.4929 327.344 67.1719C326.156 64.8329 325.554 62.098 325.536 58.9673V32.5455H338.733V56.3764C338.751 58.6255 339.345 60.3977 340.514 61.6932C341.684 62.9886 343.276 63.6364 345.291 63.6364C346.605 63.6364 347.783 63.3485 348.827 62.7727C349.888 62.179 350.725 61.3243 351.337 60.2088C351.966 59.0753 352.281 57.7079 352.281 56.1065ZM371.952 89.5455V32.5455H385.014V39.6435H385.419C385.959 38.384 386.724 37.1695 387.713 36C388.721 34.8305 389.998 33.8769 391.546 33.1392C393.111 32.3835 394.982 32.0057 397.159 32.0057C400.038 32.0057 402.728 32.7614 405.229 34.2727C407.748 35.7841 409.781 38.1141 411.328 41.2628C412.876 44.4115 413.649 48.4238 413.649 53.2997C413.649 57.9957 412.903 61.9271 411.409 65.0938C409.934 68.2604 407.937 70.6354 405.418 72.2188C402.917 73.8021 400.137 74.5938 397.078 74.5938C394.991 74.5938 393.183 74.2519 391.654 73.5682C390.124 72.8845 388.838 71.9848 387.794 70.8693C386.769 69.7538 385.977 68.5573 385.419 67.2798H385.149V89.5455H371.952ZM384.88 53.2727C384.88 55.5038 385.176 57.447 385.77 59.1023C386.382 60.7576 387.255 62.044 388.388 62.9616C389.54 63.8613 390.916 64.3111 392.517 64.3111C394.137 64.3111 395.513 63.8613 396.647 62.9616C397.78 62.044 398.635 60.7576 399.211 59.1023C399.804 57.447 400.101 55.5038 400.101 53.2727C400.101 51.0417 399.804 49.1075 399.211 47.4702C398.635 45.8329 397.78 44.5644 396.647 43.6648C395.531 42.7651 394.155 42.3153 392.517 42.3153C390.898 42.3153 389.522 42.7562 388.388 43.6378C387.255 44.5194 386.382 45.7789 385.77 47.4162C385.176 49.0535 384.88 51.0057 384.88 53.2727Z" fill="url(#paint0_linear_128_644)"/>
<defs>
<linearGradient id="paint0_linear_128_644" x1="-297.857" y1="-1.75" x2="-246.985" y2="240" gradientUnits="userSpaceOnUse">
<stop offset="0.0721154" stop-color="#B10A1E"/>
<stop offset="0.1875" stop-color="#C0162A"/>
<stop offset="0.274038" stop-color="#C0162A"/>
<stop offset="0.326923" stop-color="#C0162A"/>
<stop offset="0.442308" stop-color="#C0162A"/>
<stop offset="0.533654" stop-color="#B20F22"/>
<stop offset="0.639423" stop-color="#9F0F20"/>
<stop offset="0.754808" stop-color="#8D101E"/>
<stop offset="0.928571" stop-color="#830D1B"/>
<stop offset="1" stop-color="#840B19"/>
</linearGradient>
</defs>
</svg>
